<?xml version="1.0" standalone="no"?><!DOCTYPE svg PUBLIC "-//W3C//DTD SVG 1.1//EN" "http://www.w3.org/Graphics/SVG/1.1/DTD/svg11.dtd"><svg t="1577687315091" class="icon" viewBox="0 0 1024 1024" version="1.1" xmlns="http://www.w3.org/2000/svg" p-id="6164" xmlns:xlink="http://www.w3.org/1999/xlink" width="200" height="200"><defs><style type="text/css"></style></defs><path d="M511.071861 62.848397c-246.007927 0-447.287139 201.279213-447.287139 447.287139s201.279213 447.287139 447.287139 447.287139 447.287139-201.279213 447.28714-447.287139-201.279213-447.287139-447.28714-447.287139z m0 805.116851c-196.806341 0-357.829711-161.02337-357.829711-357.829712s161.02337-357.829711 357.829711-357.829711 357.829711 161.02337 357.829712 357.829711-161.02337 357.829711-357.829712 357.829712z" p-id="6165"></path><path d="M332.157006 456.819237c31.989575 0 53.3163 21.326724 53.316299 53.316299 0 31.989575-21.326724 53.3163-53.316299 53.3163s-53.3163-21.326724-53.3163-53.3163c0-31.989575 21.326724-53.3163 53.3163-53.316299zM508.814448 456.819237c31.989575 0 53.3163 21.326724 53.316299 53.316299 0 31.989575-21.326724 53.3163-53.316299 53.3163s-53.3163-21.326724-53.3163-53.3163c0-31.989575 21.326724-53.3163 53.3163-53.316299zM683.022095 456.819237c31.989575 0 53.3163 21.326724 53.3163 53.316299 0 31.989575-21.326724 53.3163-53.3163 53.3163s-53.3163-21.326724-53.3163-53.3163c0-31.989575 21.326724-53.3163 53.3163-53.316299z" p-id="6166"></path></svg>