<?xml version="1.0" standalone="no"?><!DOCTYPE svg PUBLIC "-//W3C//DTD SVG 1.1//EN" "http://www.w3.org/Graphics/SVG/1.1/DTD/svg11.dtd"><svg t="1577687211808" class="icon" viewBox="0 0 1024 1024" version="1.1" xmlns="http://www.w3.org/2000/svg" p-id="5547" xmlns:xlink="http://www.w3.org/1999/xlink" width="200" height="200"><defs><style type="text/css"></style></defs><path d="M724.818 78.653c85.013 50.646 113.954 160.982 63.308 245.999l-228.815 386.175c-33.462 56.978-106.72 75.969-163.696 42.507-56.978-33.462-75.969-106.72-42.507-163.696l182.689-309.307c8.139-14.468 27.129-18.99 40.698-10.851 14.471 8.139 18.993 27.133 10.851 40.698l-182.685 309.307c-17.184 28.035-7.232 65.115 20.802 82.298 28.035 17.184 65.115 7.238 82.298-20.802l228.815-386.175c33.462-56.978 14.471-130.233-42.508-163.696-56.975-33.462-130.234-14.473-163.696 42.508l-274.034 463.959c-50.646 85.010-21.706 195.347 63.308 245.994s195.35 21.706 245.999-63.308l228.811-386.175c8.139-14.473 27.133-18.994 40.701-10.855 14.469 8.142 18.991 27.133 10.851 40.701l-228.815 386.178c-66.925 113.954-214.341 151.94-328.297 84.11-113.954-66.925-151.94-214.341-84.11-328.297l274.033-463.957c49.742-85.015 160.079-113.050 245.999-63.31v0 0zM724.818 78.653z" p-id="5548"></path></svg>