<?xml version="1.0" standalone="no"?><!DOCTYPE svg PUBLIC "-//W3C//DTD SVG 1.1//EN" "http://www.w3.org/Graphics/SVG/1.1/DTD/svg11.dtd"><svg t="1577688947067" class="icon" viewBox="0 0 1024 1024" version="1.1" xmlns="http://www.w3.org/2000/svg" p-id="1238" xmlns:xlink="http://www.w3.org/1999/xlink" width="200" height="200"><defs><style type="text/css"></style></defs><path d="M512 0C229.2352 0 0 229.2352 0 512c0 282.7648 229.2352 512 512 512s512-229.2352 512-512C1024 229.2352 794.7648 0 512 0zM512 972.8C257.92 972.8 51.2 766.08 51.2 512S257.92 51.2 512 51.2s460.8 206.72 460.8 460.8S766.08 972.8 512 972.8z" p-id="1239"></path><path d="M512 512m-256 0a20 20 0 1 0 512 0 20 20 0 1 0-512 0Z" p-id="1240"></path></svg>