<?xml version="1.0" standalone="no"?><!DOCTYPE svg PUBLIC "-//W3C//DTD SVG 1.1//EN" "http://www.w3.org/Graphics/SVG/1.1/DTD/svg11.dtd"><svg t="1577687274072" class="icon" viewBox="0 0 1024 1024" version="1.1" xmlns="http://www.w3.org/2000/svg" p-id="5918" xmlns:xlink="http://www.w3.org/1999/xlink" width="200" height="200"><defs><style type="text/css"></style></defs><path d="M324.231 594.483h194.926v1.372l79.115-1.372v-274.042l-79.115 1.372v197.651h-195.63l0.703 75.018zM940.821 508.844c0-231.217-205.529-428.187-428.187-428.187-231.219 0-428.188 196.969-428.188 428.187 0 222.659 196.969 428.187 428.188 428.187 222.656 0 428.187-205.529 428.187-428.187v0zM270.476 289.266c58.877-65.414 144.882-105.841 242.16-105.841 174.721 0 325.423 142.837 325.423 325.422 0 174.704-150.702 325.424-325.423 325.424-182.582 0-325.423-150.72-325.423-325.424-0.001-85.301 31.178-162.026 83.263-219.579v0z" p-id="5919"></path></svg>